<svg xmlns="http://www.w3.org/2000/svg" viewBox="0 0 1600 1000" preserveAspectRatio="xMidYMid slice"><defs><radialGradient id="bg" cx="50%" cy="42%" r="78%"><stop offset="0%" stop-color="#1b1436"/><stop offset="100%" stop-color="#0a0712"/></radialGradient></defs><rect width="1600" height="1000" fill="url(#bg)"/><line x1="80.0" y1="120" x2="624.0" y2="920" stroke="#7e6bd0" stroke-opacity="0.30" stroke-width="1.5"/><line x1="170.0" y1="120" x2="646.0" y2="920" stroke="#7e6bd0" stroke-opacity="0.30" stroke-width="1.5"/><line x1="260.0" y1="120" x2="668.0" y2="920" stroke="#7e6bd0" stroke-opacity="0.30" stroke-width="1.5"/><line x1="350.0" y1="120" x2="690.0" y2="920" stroke="#7e6bd0" stroke-opacity="0.30" stroke-width="1.5"/><line x1="440.0" y1="120" x2="712.0" y2="920" stroke="#7e6bd0" stroke-opacity="0.30" stroke-width="1.5"/><line x1="530.0" y1="120" x2="734.0" y2="920" stroke="#7e6bd0" stroke-opacity="0.30" stroke-width="1.5"/><line x1="620.0" y1="120" x2="756.0" y2="920" stroke="#7e6bd0" stroke-opacity="0.30" stroke-width="1.5"/><line x1="710.0" y1="120" x2="778.0" y2="920" stroke="#7e6bd0" stroke-opacity="0.30" stroke-width="1.5"/><line x1="800.0" y1="120" x2="800.0" y2="920" stroke="#7e6bd0" stroke-opacity="0.30" stroke-width="1.5"/><line x1="890.0" y1="120" x2="822.0" y2="920" stroke="#7e6bd0" stroke-opacity="0.30" stroke-width="1.5"/><line x1="980.0" y1="120" x2="844.0" y2="920" stroke="#7e6bd0" stroke-opacity="0.30" stroke-width="1.5"/><line x1="1070.0" y1="120" x2="866.0" y2="920" stroke="#7e6bd0" stroke-opacity="0.30" stroke-width="1.5"/><line x1="1160.0" y1="120" x2="888.0" y2="920" stroke="#7e6bd0" stroke-opacity="0.30" stroke-width="1.5"/><line x1="1250.0" y1="120" x2="910.0" y2="920" stroke="#7e6bd0" stroke-opacity="0.30" stroke-width="1.5"/><line x1="1340.0" y1="120" x2="932.0" y2="920" stroke="#7e6bd0" stroke-opacity="0.30" stroke-width="1.5"/><line x1="1430.0" y1="120" x2="954.0" y2="920" stroke="#7e6bd0" stroke-opacity="0.30" stroke-width="1.5"/><line x1="1520.0" y1="120" x2="976.0" y2="920" stroke="#7e6bd0" stroke-opacity="0.30" stroke-width="1.5"/><line x1="80" y1="120" x2="1520" y2="120" stroke="#7e6bd0" stroke-opacity="0.28" stroke-width="1.5"/><line x1="84" y1="193" x2="1516" y2="193" stroke="#7e6bd0" stroke-opacity="0.28" stroke-width="1.5"/><line x1="95" y1="265" x2="1505" y2="265" stroke="#7e6bd0" stroke-opacity="0.28" stroke-width="1.5"/><line x1="113" y1="338" x2="1487" y2="338" stroke="#7e6bd0" stroke-opacity="0.28" stroke-width="1.5"/><line x1="139" y1="411" x2="1461" y2="411" stroke="#7e6bd0" stroke-opacity="0.28" stroke-width="1.5"/><line x1="172" y1="484" x2="1428" y2="484" stroke="#7e6bd0" stroke-opacity="0.28" stroke-width="1.5"/><line x1="213" y1="556" x2="1387" y2="556" stroke="#7e6bd0" stroke-opacity="0.28" stroke-width="1.5"/><line x1="261" y1="629" x2="1339" y2="629" stroke="#7e6bd0" stroke-opacity="0.28" stroke-width="1.5"/><line x1="316" y1="702" x2="1284" y2="702" stroke="#7e6bd0" stroke-opacity="0.28" stroke-width="1.5"/><line x1="379" y1="775" x2="1221" y2="775" stroke="#7e6bd0" stroke-opacity="0.28" stroke-width="1.5"/><line x1="449" y1="847" x2="1151" y2="847" stroke="#7e6bd0" stroke-opacity="0.28" stroke-width="1.5"/><line x1="526" y1="920" x2="1074" y2="920" stroke="#7e6bd0" stroke-opacity="0.28" stroke-width="1.5"/><ellipse cx="800.0" cy="500.0" rx="140" ry="60" fill="#5e4fb0" fill-opacity="0.22"/><ellipse cx="800.0" cy="500.0" rx="70" ry="30" fill="#4a3d8f" fill-opacity="0.4"/></svg>